<svg width="155" height="154" viewBox="0 0 155 154" fill="none" xmlns="http://www.w3.org/2000/svg">
<path d="M154.995 77.8844C154.651 96.875 149.605 115.093 137.285 130.895C128.693 141.912 117.852 149.825 103.891 152.749C88.0699 156.063 73.8453 152.122 61.2625 142.348C47.9472 132.008 39.8145 118.203 35.5714 102.211C29.0602 77.6738 31.3283 53.9693 44.0021 31.6589C50.7911 19.7089 60.1411 10.1359 72.9916 4.60967C92.0806 -3.59437 109.927 -0.655761 126.101 11.896C139.795 22.5222 147.63 36.9595 151.994 53.4077C154.055 61.1855 154.909 69.1287 155 77.8794L154.995 77.8844ZM135.562 78.4861C135.532 68.7175 134.29 60.5937 131.501 52.7407C127.763 42.2199 122.106 32.9628 112.973 26.1428C101.41 17.5075 87.7971 17.0912 75.7749 24.9743C70.1629 28.6551 65.6723 33.4692 62.1869 39.1409C51.1093 57.1586 48.9372 76.4803 54.2058 96.6895C57.3527 108.76 63.283 119.311 73.2846 127.224C85.625 136.988 100.648 137.113 113.231 127.68C117.297 124.636 120.717 120.976 123.591 116.823C131.89 104.838 135.381 91.419 135.562 78.4861Z" fill="#ADC93F"/>
<path d="M0 70.7031H22.534V83.2499H0V70.7031Z" fill="#ADC93F"/>
<path d="M26.3427 48.2023C25.489 52.2792 24.701 56.1857 23.812 60.0771C23.7312 60.4381 23.0492 60.9145 22.6401 60.9145C15.5783 60.9647 8.51655 60.9496 0.995117 60.9496C2.08115 56.5317 3.11162 52.3494 4.13704 48.1973H26.3376L26.3427 48.2023Z" fill="#ADC93F"/>
<path d="M26.3932 105.862C19.2557 105.862 12.2545 105.882 5.25844 105.816C4.82908 105.816 4.13199 105.245 4.01581 104.818C2.96513 101.032 2.02054 97.2212 0.995117 93.2396C1.76292 93.1593 2.23774 93.064 2.71257 93.064C9.15301 93.054 15.5935 93.0791 22.0289 93.034C23.2311 93.0239 23.7716 93.2997 24.009 94.6086C24.6707 98.2894 25.5446 101.93 26.3932 105.862Z" fill="#ADC93F"/>
<path d="M36.0361 25.8469C34.0408 29.969 32.1364 33.9406 30.1664 37.8872C29.9947 38.2282 29.4037 38.5591 29.0046 38.5591C22.2662 38.5842 15.5277 38.5591 8.7892 38.5341C8.68818 38.5341 8.58715 38.4187 8.16284 38.173C9.58732 35.5955 11.1886 33.0781 12.4161 30.4002C14.0982 26.7345 16.548 25.21 20.776 25.6463C25.201 26.1026 29.7068 25.7416 34.1822 25.7516C34.7884 25.7516 35.3945 25.8118 36.031 25.8469H36.0361Z" fill="#ADC93F"/>
<path d="M36.0866 128.267C31.8435 128.267 27.767 128.267 23.6906 128.267C21.4226 128.267 19.1545 128.302 16.8915 128.242C16.3207 128.227 15.4721 128.092 15.2296 127.715C12.7696 123.839 10.4056 119.898 7.81934 115.65C8.90032 115.53 9.37009 115.429 9.83987 115.429C16.0126 115.419 22.1853 115.399 28.358 115.454C28.9945 115.46 29.9644 115.77 30.2018 116.232C32.192 120.108 34.0509 124.055 36.0916 128.272L36.0866 128.267Z" fill="#ADC93F"/>
<path d="M24.3928 16.1687C34.3439 6.27473 46.1388 0.583066 60.6866 0.116699C60.131 0.623183 59.8734 0.934093 59.545 1.14973C53.736 5.00603 48.5937 9.59447 44.1385 14.9251C43.3808 15.8328 42.6281 16.2089 41.4309 16.1938C35.7533 16.1286 30.0705 16.1637 24.3928 16.1637V16.1687Z" fill="#ADC93F"/>
<path d="M24.1807 137.845C28.2066 137.845 32.1163 138.126 35.9654 137.775C40.7692 137.334 44.1839 138.648 47.442 142.504C50.786 146.466 55.3676 149.399 59.4137 152.784C59.7319 153.05 60.0805 153.291 60.4947 153.601C51.2406 155.276 30.0958 146.13 24.1807 137.845Z" fill="#ADC93F"/>
<path d="M61.0957 79.2084C61.4948 63.4823 64.7478 51.0208 73.2239 40.3044C77.6944 34.6528 83.1801 30.3853 90.6106 29.2019C95.7074 28.3945 100.39 29.6131 104.734 32.2006C111.634 36.3077 116.418 42.3554 119.605 49.4963C129.188 70.9743 128.233 91.8755 115.231 111.809C113.513 114.447 111.19 116.799 108.785 118.875C99.1524 127.199 87.5495 127.084 77.9823 118.669C69.9406 111.598 65.4499 102.446 63.096 92.2717C61.9292 87.2469 61.52 82.0517 61.1007 79.2084H61.0957Z" fill="#ADC93F"/>
</svg>
