<svg width="145" height="166" viewBox="0 0 145 166" fill="none" xmlns="http://www.w3.org/2000/svg">
<path d="M74.774 0.00450204C78.1622 0.827571 81.4435 1.84404 84.0539 4.16482C88.5748 8.19021 90.5679 13.1016 89.3137 18.7867C88.0255 24.6201 84.1998 28.668 78.0504 30.7054C65.9704 34.7083 53.1807 24.6381 55.9273 12.6924C57.4634 6.01786 62.1301 1.95198 69.2809 0.314841C69.6066 0.238381 69.9177 0.107943 70.2337 0C71.7455 0 73.2621 0 74.774 0V0.00450204ZM72.601 24.6381C77.8754 24.6336 82.1387 20.7072 82.1484 15.8362C82.163 10.9698 77.9483 7.01632 72.674 6.93986C67.4385 6.8679 62.9419 11.0058 62.9954 15.8452C63.0489 20.6937 67.3559 24.6381 72.601 24.6336V24.6381Z" fill="#ADC93F"/>
<path d="M72.6155 162.27C65.3238 168.023 56.7487 165.171 53.3264 160.125C51.8875 158.002 51.3625 155.686 51.3625 153.208C51.3771 135.006 51.3722 116.808 51.3722 98.6061C51.3722 97.9719 51.3722 97.3333 51.3722 96.5912C47.7069 97.4502 44.3673 97.1713 41.3242 95.3138C37.9992 93.2854 36.4339 90.3394 36.4242 86.7008C36.3999 77.0624 36.3415 67.424 36.4387 57.7855C36.5554 45.8667 46.7347 37.1098 58.5133 37.0379C68.3474 36.9794 78.1913 36.84 88.0108 37.1683C98.9679 37.5326 108.311 46.3615 108.569 56.5082C108.826 66.7898 108.763 77.0759 108.608 87.362C108.51 93.7396 102.045 98.1428 95.1032 96.8745C94.7192 96.8026 94.3352 96.7441 93.7519 96.6451C93.7519 97.4052 93.7519 98.0394 93.7519 98.6736C93.7519 116.876 93.7616 135.073 93.747 153.275C93.7421 159.239 90.5435 163.444 84.8413 164.987C80.2718 166.219 76.242 165.099 72.6107 162.266L72.6155 162.27ZM86.29 107.732C86.29 92.5973 86.29 77.4582 86.29 62.3236C86.29 61.7344 86.2657 61.1317 86.3677 60.5515C86.674 58.775 88.3025 57.5066 90.1206 57.5651C91.9872 57.6236 93.4699 58.9279 93.6644 60.7449C93.7519 61.5455 93.7276 62.3596 93.7276 63.1647C93.7276 70.8152 93.713 78.4612 93.7373 86.1117C93.747 88.6078 95.1907 90.1415 97.4415 90.1775C99.7116 90.2135 101.296 88.6483 101.296 86.2646C101.311 76.8915 101.364 67.5184 101.282 58.1453C101.214 50.1305 95.0984 44.1396 86.64 43.9867C77.3308 43.8203 68.0071 43.8248 58.698 43.9867C50.4778 44.1261 44.2215 49.8606 44.0756 57.4662C43.8861 67.3205 44.027 77.1793 44.0124 87.0382C44.0124 88.3245 44.7027 89.17 45.8694 89.7323C48.6403 91.0681 51.3868 89.3994 51.3965 86.3365C51.416 78.3127 51.3965 70.2844 51.416 62.2606C51.416 61.4601 51.4841 60.637 51.7077 59.8724C52.1598 58.3477 53.7202 57.4212 55.4362 57.5336C57.0792 57.6416 58.4209 58.676 58.7175 60.1872C58.8827 61.0283 58.9168 61.8963 58.9168 62.7554C58.9265 92.5433 58.9265 122.331 58.9265 152.119C58.9265 152.87 58.9216 153.63 58.9994 154.377C59.2376 156.639 60.9536 158.222 63.389 158.479C66.5877 158.812 68.8433 156.747 68.8433 153.419C68.853 137.151 68.8433 120.883 68.8578 104.615C68.8578 103.868 68.8724 103.099 69.0523 102.375C69.4606 100.702 70.953 99.6451 72.6836 99.69C74.5114 99.7395 75.9454 100.931 76.2128 102.681C76.3197 103.369 76.3294 104.075 76.3294 104.772C76.3343 120.609 76.3294 136.445 76.3392 152.281C76.3392 153.032 76.344 153.792 76.451 154.534C76.8253 157.251 79.4503 158.973 82.3476 158.434C84.9337 157.953 86.2948 156.212 86.2948 153.297C86.3045 138.109 86.2948 122.916 86.2948 107.727L86.29 107.732Z" fill="#ADC93F"/>
<path d="M11.9527 93.1871C10.3242 93.1016 8.89994 93.1961 7.56312 92.9217C3.00335 91.9952 0.144993 88.7839 0.0915199 84.3582C0.004019 76.4963 -0.0689091 68.6299 0.110954 60.768C0.329706 51.377 7.96174 44.2572 18.1653 43.749C21.4174 43.5871 24.6841 43.6545 27.9411 43.7085C30.4981 43.7535 32.1314 45.1567 32.1509 47.1492C32.1703 49.1416 30.5564 50.5719 28.0043 50.6439C25.214 50.7203 22.414 50.6484 19.6237 50.6709C12.2444 50.7248 7.63602 54.9526 7.60199 61.7575C7.56796 69.0842 7.58741 76.4064 7.60199 83.733C7.60199 85.4601 8.30202 86.2607 9.74578 86.2787C11.1312 86.2967 11.9673 85.4017 11.9722 83.7555C11.9916 77.8861 11.977 72.0122 11.9819 66.1427C11.9819 62.8729 13.3284 61.1279 15.8028 61.1728C18.2528 61.2223 19.5167 62.8865 19.5167 66.0753C19.5167 89.5035 19.5167 112.936 19.5167 136.364C19.5167 137.012 19.4827 137.664 19.5653 138.303C19.7598 139.796 21.1987 140.921 22.8223 140.912C24.3681 140.903 25.7244 139.832 25.9383 138.388C26.0307 137.754 26.0258 137.102 26.0258 136.454C26.0258 123.96 26.0258 111.461 26.0355 98.9666C26.0355 98.1615 26.0598 97.3429 26.2203 96.5558C26.5314 95.0176 28.0092 93.9202 29.6911 93.8752C31.271 93.8303 32.8023 94.7927 33.2349 96.25C33.4585 97.0146 33.5168 97.8421 33.5168 98.6382C33.5314 111.349 33.5266 124.059 33.5314 136.774C33.5314 137.313 33.5023 137.858 33.5752 138.388C33.7793 139.823 35.1405 140.889 36.7155 140.912C38.2662 140.93 39.6711 139.868 39.8899 138.451C39.9871 137.817 39.9822 137.165 39.9822 136.517C39.9871 126.82 39.9822 117.128 39.9871 107.431C39.9871 104.251 41.2947 102.605 43.7788 102.632C46.2434 102.655 47.4781 104.278 47.4781 107.512C47.4781 117.582 47.5267 127.657 47.4635 137.727C47.4149 145.31 39.0732 150.213 32.0196 146.723C30.2648 145.855 29.1515 145.922 27.4453 146.75C20.382 150.172 12.0986 145.292 11.9673 137.682C11.8701 131.867 11.9479 126.047 11.9479 120.231C11.9479 111.83 11.9479 103.428 11.9479 95.0221V93.1871H11.9527Z" fill="#ADC93F"/>
<path d="M133.054 93.1192C133.054 93.8703 133.054 94.5044 133.054 95.1386C133.054 109.194 133.068 123.249 133.049 137.304C133.039 142.571 129.918 146.457 124.785 147.532C121.348 148.251 118.208 147.532 115.933 145.823C113.244 146.542 110.979 147.545 108.651 147.694C102.958 148.062 98.3159 144.167 97.7179 138.91C97.5964 137.844 97.6013 136.76 97.6013 135.685C97.5916 126.262 97.5916 116.835 97.6013 107.413C97.6013 104.255 98.9381 102.596 101.422 102.632C103.838 102.668 105.126 104.3 105.126 107.359C105.126 117.321 105.092 127.283 105.185 137.246C105.194 138.253 105.685 139.517 106.444 140.2C108.204 141.784 111.081 140.7 111.475 138.442C111.587 137.808 111.558 137.156 111.558 136.508C111.558 123.959 111.558 111.411 111.572 98.8671C111.572 98.0126 111.626 97.1355 111.84 96.308C112.199 94.8957 113.784 93.8163 115.354 93.8927C117.002 93.9692 118.281 94.6888 118.772 96.2C119.034 97.0051 119.083 97.8956 119.088 98.7457C119.107 111.348 119.102 123.951 119.102 136.548C119.102 137.142 119.068 137.74 119.156 138.32C119.379 139.814 120.833 140.938 122.437 140.916C124.109 140.893 125.334 139.796 125.47 138.163C125.519 137.574 125.5 136.98 125.5 136.386C125.5 112.909 125.5 89.4266 125.5 65.9489C125.5 63.1783 126.326 61.856 128.334 61.3568C130.327 60.8665 132.286 61.8785 132.772 63.7225C132.961 64.4467 133.02 65.2113 133.025 65.9579C133.044 71.6114 133.034 77.2649 133.039 82.923C133.039 83.4627 133.01 84.0069 133.107 84.5331C133.336 85.7295 134.22 86.3097 135.465 86.2377C136.651 86.1703 137.385 85.5406 137.38 84.3442C137.351 76.2125 137.463 68.0807 137.254 59.9535C137.132 55.1725 132.461 51.0347 127.264 50.7738C124.129 50.6164 120.979 50.7109 117.838 50.6614C117.031 50.6479 116.2 50.5939 115.422 50.4095C113.872 50.0407 112.792 48.6419 112.851 47.1397C112.914 45.588 113.755 44.5086 115.345 43.9689C115.617 43.8744 115.913 43.789 116.195 43.7935C120.896 43.9059 125.699 43.4966 130.268 44.2792C139.082 45.7859 144.779 52.7393 144.92 61.4197C145.046 69.0118 145.002 76.6038 144.93 84.2003C144.876 89.7729 140.53 93.443 134.546 93.1281C134.143 93.1056 133.739 93.1281 133.054 93.1281V93.1192Z" fill="#ADC93F"/>
<path d="M29.8611 11.7842C37.6729 11.7842 44.1772 17.7795 44.2452 25.0432C44.3084 32.208 37.8091 38.2753 29.9437 38.3878C22.1804 38.5002 15.3942 32.2484 15.4671 25.0387C15.5401 17.784 22.054 11.7842 29.8611 11.7842ZM29.8319 18.7285C26.0159 18.7375 22.9922 21.5666 23.0019 25.1062C23.0117 28.6503 26.0499 31.4344 29.8902 31.4209C33.716 31.4074 36.7299 28.5964 36.7202 25.0477C36.7104 21.5216 33.6479 18.7151 29.8319 18.7285Z" fill="#ADC93F"/>
<path d="M129.661 25.0923C129.656 32.3605 123.21 38.3513 115.355 38.3873C107.509 38.4278 100.893 32.266 100.965 24.9843C101.038 17.7206 107.596 11.7163 115.379 11.7882C123.288 11.8602 129.661 17.7971 129.656 25.0878L129.661 25.0923ZM115.369 31.416C119.175 31.398 122.267 28.524 122.238 25.0383C122.204 21.5391 119.093 18.7146 115.286 18.7281C111.49 18.7416 108.388 21.6291 108.418 25.1148C108.452 28.6319 111.539 31.434 115.369 31.416Z" fill="#ADC93F"/>
</svg>
