<svg width="216" height="169" viewBox="0 0 216 169" fill="none" xmlns="http://www.w3.org/2000/svg">
<path d="M207.7 92.2319C206.158 92.9629 205.074 93.4104 204.068 93.9712C198.719 96.9584 193.616 94.5447 193.048 88.6083C192.474 82.59 192.209 76.5465 191.609 70.5344C191.358 68.0515 190.68 65.5937 190.009 63.1738C188.074 56.1976 189.932 50.1793 194.513 44.7218C194.997 44.1483 195.371 43.0455 195.138 42.4216C194.719 41.3188 194.074 40.2916 192.319 40.4806C180.325 41.7536 173.667 31.8596 173.344 23.0117C173.273 21.0645 172.609 20.0057 170.944 19.1739C168.376 17.882 165.886 16.4578 163.402 15.1155C163.047 15.2856 162.802 15.3423 162.634 15.4873C155.969 21.0455 149.633 21.6127 142.414 16.7602C139.549 14.8319 137.155 12.1851 134.749 9.6832C133.22 8.09512 129.691 6.85995 128.484 7.89346C127.007 9.16015 126.658 13.6219 128.052 15.1028C129.02 16.1364 130.155 17.0564 131.329 17.8631C136.846 21.6442 138.014 26.9063 134.097 32.326C129.329 38.9304 122.49 42.22 114.4 43.3795C108.677 44.1988 102.961 45.1251 97.2958 46.2532C93.4312 47.022 92.3344 49.3915 94.7796 52.366C98.4895 56.8782 102.599 61.1068 106.806 65.1967C109.451 67.7679 113.045 67.4528 116.419 66.8667C121.181 66.0349 125.62 66.5327 129.981 68.7384C131.833 69.6774 134.117 70.1059 136.226 70.2004C140.369 70.3832 143.982 71.6184 146.898 74.4668C151.717 79.1681 157.182 82.9492 163.105 86.2325C169.899 90.001 172.131 95.4144 170.041 102.819C167.073 113.312 161.195 122.034 152.911 129.344C147.549 134.07 142.323 138.986 137.517 144.235C135.543 146.391 134.781 149.623 133.568 152.409C133.071 153.556 132.942 154.854 132.465 156.007C130.51 160.721 126.278 161.824 122.174 158.736C114.522 152.976 111.271 142.105 114.645 133.276C115.568 130.856 116.839 128.562 117.864 126.18C119.652 122.034 119.097 119.494 115.645 116.507C114.329 115.366 112.858 114.383 111.361 113.463C103.09 108.371 99.696 101.313 101.341 91.8853C102.154 87.2345 100.664 83.5101 97.2443 80.441C95.5345 78.9097 93.657 77.5107 91.7021 76.2881C83.1856 70.9756 74.0111 66.539 67.7657 58.8381C63.1784 60.7161 58.8685 62.405 54.6554 64.2956C53.9199 64.6296 53.3199 65.7765 53.1134 66.6462C49.4294 82.1489 50.4101 97.3617 56.2749 112.24C56.5329 112.902 56.8103 113.551 57.0491 114.219C57.9201 116.677 57.12 118.637 54.92 119.456C52.8554 120.225 50.7133 119.399 49.952 117.011C47.9455 110.734 45.9712 104.432 44.4292 98.036C43.5905 94.5573 43.7518 90.8518 43.2872 87.2723C43.0292 85.2809 42.6743 83.2139 41.8807 81.3863C39.8032 76.6095 39.0677 76.2818 33.7836 76.5528C18.254 77.3468 4.58892 67.5915 0.698442 52.971C0.111321 50.7717 0.111304 48.755 1.93073 47.0976C3.65983 45.5222 5.60186 45.7742 7.78904 46.165C11.2279 46.7825 14.8345 47.5451 18.2282 47.1355C32.061 45.4528 37.8935 53.0088 40.9194 61.0753C41.7968 63.4196 42.2678 65.9088 42.9453 68.3288C43.2034 69.2552 43.5195 70.1689 44.2163 71.0008C44.8357 68.3288 45.5518 65.6694 46.0164 62.9658C46.1583 62.1403 45.7067 61.1572 45.3647 60.3127C42.4291 53.0845 40.3194 45.7364 41.3968 37.8275C41.9646 33.6998 43.3582 29.8808 45.926 26.5534C50.6617 20.4154 56.4233 15.4936 63.8881 12.7459C70.7077 10.2378 77.1208 7.16244 82.5469 2.20914C85.6502 -0.620418 90.0569 1.03068 91.0311 5.25926C94.7732 21.4426 91.3988 35.9433 80.0371 48.4778C79.1338 49.4735 78.1467 50.4124 77.166 51.3388C76.1853 52.2589 75.1595 53.1349 73.7594 54.3889C76.1015 56.4245 78.1918 58.5986 80.6371 60.2812C85.0437 63.2999 89.7407 65.9088 94.1667 68.9085C97.5217 71.1835 100.935 73.5152 103.793 76.3322C108.329 80.8003 110.29 86.3081 109.025 92.7172C107.722 99.3216 109.793 103.556 115.671 107.218C117.897 108.604 120.039 110.18 121.974 111.925C126.516 116.015 127.736 121.032 125.691 126.735C124.31 130.579 122.548 134.316 121.458 138.236C120.058 143.271 122.207 147.512 125.652 151.835C127.852 140.927 135.278 134.146 143.033 127.762C150.904 121.284 157.75 114.156 161.427 104.565C161.905 103.317 162.415 102.076 162.757 100.79C163.647 97.4184 162.821 94.7338 159.763 93.0701C153.105 89.4528 147.098 85.0793 141.523 80.0188C140.091 78.7206 137.659 78.3929 135.626 77.8194C132.871 77.0443 129.917 76.7733 127.304 75.7083C123.994 74.3597 120.787 73.698 117.232 74.3534C109.935 75.6957 103.703 73.6791 98.6766 68.3099C95.6893 65.1211 92.7021 61.926 89.8375 58.6364C88.76 57.395 87.8697 55.9392 87.1535 54.4646C84.0566 48.0555 86.5986 41.6339 93.5925 39.611C99.1024 38.0166 104.877 37.191 110.587 36.3529C116 35.5588 121.2 34.4749 125.374 30.719C126.026 30.1329 126.678 29.5405 127.226 28.8725C129.11 26.5471 129 25.7216 126.658 23.9381C126.342 23.6987 126.039 23.434 125.723 23.1945C120.806 19.5331 117.903 15.065 119.935 8.23376C117.045 8.71901 114.464 9.08452 111.922 9.60758C109.883 10.0298 107.896 10.6852 105.87 11.1957C103.154 11.8763 101.025 10.8743 100.444 8.6938C99.8895 6.58266 101.07 4.74881 103.657 3.95477C113.025 1.0811 122.639 -0.450267 132.433 0.116905C164.789 1.99487 189.583 16.4262 205.32 44.161C233.921 94.5636 202.236 158.282 144.091 167.426C112.032 172.468 85.147 162.441 63.5655 138.784C63.088 138.261 62.5848 137.719 62.2429 137.108C61.2235 135.274 61.4815 133.554 63.1655 132.268C64.7462 131.058 66.4946 131.134 68.0302 132.407C68.8818 133.112 69.5141 134.058 70.2754 134.858C92.4505 158.093 119.574 166.702 150.846 158.099C181.931 149.554 200.371 128.474 206.997 97.6075C207.339 96.0257 207.436 94.3935 207.72 92.2256L207.7 92.2319ZM55.9523 55.4981C73.6627 51.3325 88.4439 27.8642 84.2179 11.6809C78.6177 14.271 72.9916 17.0438 67.2237 19.4827C61.8686 21.7451 57.391 24.9842 53.5651 29.2632C48.2681 35.187 48.0358 41.8797 49.8746 49.4798C50.8617 47.6333 51.6037 46.1776 52.4037 44.7533C55.7781 38.7539 60.2299 33.6494 65.7462 29.4397C67.7205 27.9335 69.9012 28.1289 71.3271 29.7989C72.7658 31.4815 72.5271 33.5548 70.6754 35.2311C70.1464 35.7101 69.5528 36.126 69.0109 36.5861C62.9655 41.7221 58.5846 47.9295 55.9587 55.4981H55.9523ZM208.087 84.6255C208.158 72.6834 205.442 61.3337 199.913 50.4566C197.474 53.3365 196.622 56.3614 197.184 59.5628C198.177 65.1967 199.306 70.8117 200.094 76.4708C200.565 79.8424 200.487 83.2832 200.655 86.6295C203.165 85.9552 205.455 85.3376 208.094 84.6255H208.087ZM9.81494 55.0065C12.2731 62.134 21.7573 68.9212 29.648 68.5241C27.1769 67.3835 25.3446 66.4697 23.4542 65.6883C20.9057 64.6296 19.8669 62.9343 20.596 60.7854C21.3444 58.5797 23.48 57.647 26.093 58.6175C28.2931 59.4368 30.3964 60.5081 32.5578 61.4786C31.3384 57.25 26.8737 54.2062 22.1509 54.4142C18.0733 54.5906 14.0022 54.8049 9.80848 55.0065H9.81494ZM145.878 9.26728C145.827 9.47524 145.769 9.6832 145.717 9.89117C148.227 11.4666 150.73 13.0799 154.066 11.4792C151.337 10.7419 148.608 10.0046 145.878 9.26728Z" fill="#ADC93F"/>
<path d="M89.0245 145.2C87.5664 144.469 86.5728 144.116 85.7534 143.536C74.7014 135.709 66.4494 125.67 60.9653 113.457C59.8363 110.936 60.5331 108.857 62.7073 107.911C64.8429 106.979 66.8559 107.905 68.0301 110.489C73.011 121.416 80.4177 130.428 90.3149 137.48C91.9472 138.646 93.115 140.164 92.1408 142.068C91.5085 143.303 90.102 144.154 89.0181 145.2H89.0245Z" fill="#ADC93F"/>
<path d="M55.5717 95.4266C55.7071 93.0571 56.7072 91.6959 58.7782 91.2296C60.5912 90.8199 62.5719 91.9165 63.0816 93.7755C63.6559 95.8867 64.0817 98.0419 64.4107 100.203C64.6946 102.107 63.372 103.877 61.5332 104.23C59.4621 104.634 57.733 103.928 57.0814 101.968C56.3394 99.756 56.0168 97.4117 55.5781 95.4329L55.5717 95.4266Z" fill="#ADC93F"/>
<path d="M62.688 126.035C62.6364 128.077 60.9008 129.716 58.8169 129.69C56.7587 129.665 55.0103 127.957 54.9974 125.953C54.9845 123.855 56.8684 122.084 59.0169 122.178C61.1138 122.273 62.7396 123.981 62.688 126.035Z" fill="#ADC93F"/>
</svg>
