<?xml version="1.0" encoding="UTF-8"?>
<svg id="_Слой_1" data-name="Слой 1" xmlns="http://www.w3.org/2000/svg" viewBox="0 0 306.64 306.59">
  <defs>
    <style>
      .cls-1 {
        fill: #535f72;
      }
    </style>
  </defs>
  <path class="cls-1" d="M80.58,306.59c-35.24-.17-62.94-18.81-74.78-47.49-11.76-28.47-5.34-61.13,16.43-83.04,19.35-19.46,38.7-38.92,58.21-58.22,30.43-30.11,77.67-30.69,107.82-1.49,8.43,8.17,9.16,19.75,1.76,27.73-7.53,8.11-19.16,8.18-28.02,.16-16.3-14.77-38.5-14.91-53.92,.19-19.6,19.21-38.99,38.63-58.2,58.23-10.69,10.9-13.78,24.23-9.06,38.69,4.72,14.47,15.13,23.27,30.18,25.83,12.6,2.15,23.76-1.49,32.94-10.41,10.01-9.74,19.71-19.81,29.72-29.55,10.94-10.65,28.64-5.63,32.16,9.08,1.55,6.49,.12,12.53-4.59,17.31-11.11,11.29-22.1,22.74-33.72,33.49-14.33,13.25-31.74,19.27-46.93,19.48Z"/>
  <path class="cls-1" d="M230.03,0c30.73,0,58.51,18.46,70.55,46.89,11.97,28.27,5.91,61.15-15.75,83.19-19.15,19.49-38.41,38.87-57.97,57.94-29.87,29.12-77.35,29.06-106.72,.21-7.94-7.79-8.41-19.36-1.12-27.18,7.27-7.8,18.82-8.15,27.21-.82,18.15,15.86,39.25,15.12,56.37-2,18.53-18.52,37.15-36.95,55.54-55.61,15.33-15.55,15.34-39.47,.33-54.46-14.66-14.63-38.23-15.09-53.35-.69-10.3,9.8-20.08,20.14-30.28,30.05-10.95,10.64-28.68,5.58-32.15-9.13-1.53-6.49-.1-12.52,4.62-17.31,10.59-10.76,21.02-21.71,32.15-31.88C193.64,6.23,210.82,.22,230.03,0Z"/>
</svg>