<svg width="179" height="165" viewBox="0 0 179 165" fill="none" xmlns="http://www.w3.org/2000/svg">
<path d="M179 6.45102V78.6065C178.358 79.724 177.685 80.8335 177.095 81.9752C176.95 82.2496 176.95 82.6974 177.095 82.9717C177.685 84.1135 178.358 85.2189 179 86.3405V158.496C177.112 163.503 173.153 165.036 167.616 164.999C143.917 164.85 120.213 164.931 96.5097 164.947C94.2328 164.947 92.1352 164.568 90.2386 163.329C89.9152 163.119 89.1766 163.043 88.9013 163.236C86.7163 164.769 84.2253 164.951 81.6119 164.947C61.8109 164.923 42.0099 164.935 22.2133 164.931C17.7864 164.931 13.3595 164.967 8.9369 164.915C5.22667 164.874 2.5172 163.261 0.830333 160.215C0.520055 159.654 0.275317 159.065 0 158.488C0 134.435 0 110.386 0 86.3324C0.642407 85.2148 1.3154 84.1054 1.90536 82.9637C2.04958 82.6893 2.04958 82.2415 1.90536 81.9672C1.3154 80.8254 0.642407 79.72 0 78.5984C0 54.5452 0 30.4961 0 6.44294C1.17119 3.22752 3.50046 1.07719 6.99219 0C33.0949 0 59.202 0 85.3047 0C86.5196 0.593059 87.7214 1.21032 88.9581 1.759C89.2553 1.89213 89.7404 1.89213 90.0419 1.759C91.2787 1.21435 92.4804 0.593059 93.6953 0C119.798 0 145.905 0 172.008 0C175.5 1.07719 177.829 3.22752 179 6.44294V6.45102ZM92.3012 85.1301C92.3012 85.9088 92.3012 86.4978 92.3012 87.0868C92.3012 95.5147 92.3143 103.943 92.2925 112.37C92.2837 115.872 90.0506 117.986 86.2618 118.12C84.8065 118.172 83.3425 118.043 81.896 118.152C78.8238 118.382 76.4508 117.381 74.2789 115.34C70.2758 111.576 63.6376 111.773 59.5341 115.566C55.4786 119.314 55.4262 125.377 59.4118 129.21C63.3623 133.006 70.2147 133.353 74.1784 129.597C76.5688 127.334 79.1559 126.422 82.4335 126.672C83.5348 126.757 84.6448 126.672 85.7548 126.689C90.0812 126.737 92.2925 128.791 92.2969 132.793C92.3056 140.414 92.2969 148.039 92.2969 155.66C92.2969 158.859 93.2976 159.775 96.785 159.775C120.847 159.775 144.909 159.775 168.971 159.775C172.327 159.775 173.389 158.811 173.389 155.753C173.389 133.527 173.389 111.305 173.389 89.0798C173.389 86.0137 172.336 85.0575 168.979 85.0535C161 85.0535 153.015 85.0535 145.035 85.0535C144.424 85.0535 143.816 85.1019 143.091 85.1342C143.091 86.5987 143.187 87.8856 143.065 89.1565C142.916 90.7137 143.458 91.8152 144.681 92.9609C149.484 97.4714 150.437 104.79 147.133 110.269C143.659 116.026 136.706 119.144 129.88 117.813C123.648 116.595 119.252 113.234 117.381 107.541C115.502 101.825 116.971 96.7412 121.494 92.4284C121.887 92.0532 122.486 91.6215 122.512 91.1898C122.621 89.1767 122.56 87.1554 122.56 85.1221H92.2969L92.3012 85.1301ZM86.6201 85.0495C85.8422 85.0495 85.2129 85.0495 84.5793 85.0495C75.4326 85.0495 66.2859 85.0575 57.1393 85.0454C53.2237 85.0414 50.9381 82.9959 50.8114 79.4093C50.7677 78.2313 50.8857 77.0411 50.7851 75.8671C50.5273 72.9018 51.5018 70.5619 53.9098 68.4035C57.9958 64.7443 57.6724 58.4506 53.582 54.7873C49.461 51.1039 42.8315 51.12 38.7717 54.8277C34.572 58.6684 34.3753 64.7281 38.5663 68.5285C40.7339 70.4933 41.7739 72.6477 41.538 75.4153C41.4374 76.5893 41.5292 77.7754 41.5205 78.9575C41.4768 83.0362 39.2611 85.0494 34.7949 85.0535C26.4654 85.0615 18.1316 85.0535 9.80217 85.0575C6.7125 85.0575 5.61561 86.0863 5.61124 88.9628C5.60687 111.241 5.61124 133.519 5.61124 155.797C5.61124 158.778 6.68627 159.775 9.90267 159.775C34.0825 159.775 58.2624 159.775 82.4423 159.775C85.6412 159.775 86.7031 158.77 86.7075 155.777C86.7119 148.37 86.7075 140.958 86.7075 133.551C86.7075 133.035 86.6507 132.518 86.6113 131.853C85.0381 131.853 83.5872 131.921 82.1495 131.832C80.5413 131.736 79.3876 132.179 78.1727 133.269C70.4113 140.232 57.1961 137.981 52.4938 128.984C49.0327 122.36 51.2309 114.428 57.6987 110.204C64.1927 105.964 72.9722 106.678 78.6534 111.898C79.0904 112.302 79.6235 112.871 80.1436 112.895C82.2762 113.008 84.4219 112.943 86.6332 112.943V85.0454L86.6201 85.0495ZM92.3493 79.8894C93.1228 79.8894 93.7521 79.8894 94.3814 79.8894C103.528 79.8894 112.675 79.8814 121.821 79.8935C125.829 79.9015 128.097 81.9631 128.197 85.6546C128.232 86.9416 128.119 88.2366 128.224 89.5196C128.451 92.2791 127.441 94.4456 125.265 96.4063C121.131 100.13 121.262 106.21 125.331 109.994C129.399 113.778 135.919 113.899 140.132 110.269C144.306 106.674 144.791 100.348 140.722 96.6766C138.113 94.3205 137.174 91.7829 137.475 88.6078C137.558 87.7565 137.48 86.8891 137.488 86.0338C137.528 81.9349 139.73 79.8935 144.161 79.8894C152.495 79.8814 160.825 79.8894 169.158 79.8854C172.283 79.8854 173.398 78.8727 173.398 76.0285C173.402 53.698 173.402 31.3635 173.398 9.03305C173.398 6.19283 172.274 5.17214 169.158 5.16811C144.979 5.16407 120.799 5.16811 96.6189 5.16811C93.3763 5.16811 92.3056 6.14843 92.3056 9.11776C92.3012 16.5814 92.3056 24.041 92.3056 31.5047C92.3056 31.9727 92.358 32.4407 92.4017 33.0903C94.0493 33.0903 95.6138 33.0176 97.1652 33.1104C98.6073 33.1992 99.6125 32.7634 100.674 31.8113C104.712 28.1844 109.637 26.9055 115.144 27.8859C121.918 29.0921 127.179 34.3046 127.975 40.3683C128.857 47.0695 125.396 53.1776 119.129 55.9734C112.753 58.8177 105.342 57.6235 100.29 52.9557C99.8921 52.5886 99.3983 52.0681 98.9307 52.048C96.7544 51.9511 94.5693 52.0036 92.3537 52.0036V79.8935L92.3493 79.8894ZM86.7031 79.8208C86.7031 70.6224 86.69 61.6055 86.7075 52.5885C86.7163 49.0786 88.9319 46.9565 92.7208 46.8274C94.4645 46.7669 96.2169 46.8678 97.9649 46.7992C100.456 46.7064 102.453 47.477 104.175 49.1795C107.313 52.2779 111.254 53.1171 115.511 51.7172C119.772 50.3132 122.14 47.3721 122.486 43.1158C122.796 39.2992 120.362 35.3979 116.507 33.6995C112.736 32.0373 107.758 32.5214 104.975 35.2527C102.554 37.629 99.8135 38.577 96.396 38.2704C95.3559 38.1776 94.2984 38.2664 93.2496 38.2543C88.9188 38.2059 86.7075 36.1523 86.7031 32.1542C86.6944 24.5332 86.7031 16.9082 86.7031 9.28319C86.7031 6.07986 85.7068 5.16407 82.2194 5.16407C58.1575 5.16407 34.0913 5.16407 10.0294 5.16407C6.6688 5.16407 5.60687 6.12828 5.60687 9.18636C5.60687 31.4119 5.60687 53.6375 5.60687 75.8591C5.60687 78.9252 6.66005 79.8814 10.0163 79.8854C18.0005 79.8894 25.9803 79.8854 33.9645 79.8854C34.5764 79.8854 35.1838 79.837 35.9092 79.8047C35.9092 78.4492 35.8262 77.2671 35.9267 76.1011C36.0753 74.4067 35.5771 73.1479 34.2136 71.8448C29.5638 67.3989 28.6199 60.5485 31.6309 55.094C34.6638 49.5991 41.0441 46.2949 47.5818 46.9323C54.3599 47.5939 59.1539 50.9062 61.4002 56.7803C63.6639 62.6988 62.2348 68.0888 57.384 72.6154C56.9951 72.9785 56.4881 73.4546 56.4663 73.8983C56.3658 75.8631 56.4226 77.8319 56.4226 79.8168H86.7075L86.7031 79.8208Z" fill="#ADC93F"/>
</svg>
