<svg width="181" height="179" viewBox="0 0 181 179" fill="none" xmlns="http://www.w3.org/2000/svg">
<path d="M123.747 178.996H57.279C52.3947 176.832 53.2803 172.668 53.7807 168.507H51.5578C36.7409 168.507 21.9241 168.446 7.10729 168.555C3.83041 168.582 1.40817 167.681 0 164.662C0 163.032 0 161.397 0 159.767C0.106277 159.444 0.270121 159.129 0.309975 158.801C1.44803 149.886 5.36257 142.348 12.1156 136.387C14.9408 133.892 18.2266 131.908 21.2997 129.696C12.5274 118.824 16.5881 106.832 22.6769 101.059C29.9658 94.1498 41.0186 93.0966 49.3215 98.6903C53.453 101.47 56.3314 105.237 57.7484 109.991C59.967 117.425 58.2045 124.081 53.5195 129.792C56.5129 131.908 59.5197 133.682 62.0881 135.946C64.6963 138.244 66.8661 141.028 69.2574 143.628C70.9489 142.636 72.7557 141.574 74.5757 140.508C64.0896 128.272 70.267 110.219 85.0971 106.181V75.0611C84.2779 75.1354 83.5738 75.1616 82.8786 75.2709C75.8156 76.3634 69.2175 78.7058 63.1331 82.4467C58.9352 85.0294 57.465 84.8327 53.7409 81.6688C47.5945 76.4465 40.4828 74.5935 32.5164 76.1143C27.7605 77.0189 23.7353 79.2958 20.1838 82.5297C18.0627 84.4613 15.7689 84.7235 13.7098 83.561C11.7215 82.4379 10.5303 80.2441 11.0971 77.9192C12.337 72.8367 13.4396 67.6888 15.2109 62.7811C19.8074 50.0204 27.486 39.2349 37.817 30.3548C48.334 21.313 60.4541 15.3697 74.1151 12.5903C77.7285 11.8561 81.404 11.4278 85.2078 10.8379C85.2078 9.58801 85.3097 8.3076 85.1901 7.049C84.8801 3.79763 86.0359 1.39407 89.1002 0H91.9298C97.1463 2.21128 95.5256 6.90913 95.8621 10.7942C96.0702 10.9209 96.1632 11.0171 96.2651 11.0345C96.6725 11.1001 97.0799 11.1525 97.4917 11.1875C109.9 12.2494 121.519 15.881 132.081 22.3575C153.026 35.1969 165.514 53.8093 169.929 77.7488C170.358 80.0737 169.619 82.014 167.604 83.3687C165.305 84.9158 162.958 84.4569 160.164 81.9615C150.661 73.4748 136.46 73.4442 127.01 81.8916C123.747 84.8109 122.108 84.7409 118.163 82.687C113.916 80.4757 109.501 78.5179 105.006 76.8573C102.159 75.8041 99.0283 75.5025 95.8798 74.8295V106.238C103.248 108.532 108.403 113.099 110.714 120.458C113.048 127.878 111.255 134.534 106.388 140.495C108.39 141.649 110.192 142.693 112.092 143.79C116.028 137.742 121.231 133.236 127.661 130.103C118.189 118.338 122.958 105.669 129.999 99.9271C137.886 93.4899 149.599 93.5904 157.326 100.111C164.358 106.05 168.711 118.579 159.504 129.998C160.085 130.308 160.651 130.601 161.205 130.911C173.409 137.759 180.144 148.046 180.977 161.948C181.247 166.484 179.148 168.507 174.583 168.512C159.558 168.512 144.528 168.512 129.503 168.512H127.218C127.79 172.676 128.631 176.832 123.751 179L123.747 178.996ZM116.666 69.8257C115.873 60.3076 114.191 51.2527 110.767 42.5606C108.314 36.3288 105.237 30.4816 100.273 25.7793C94.3919 20.2074 88.0242 19.8185 81.7937 24.9665C79.6991 26.697 77.8481 28.8296 76.2805 31.0497C71.1526 38.3259 68.3009 46.5723 66.5119 55.1771C65.5199 59.9405 64.9177 64.787 64.0808 69.9481C81.8069 62.3659 99.1213 62.3616 116.666 69.8257ZM116.258 168.442C115.191 159.544 105.347 146.832 89.0515 147.574C77.2902 148.112 64.4306 159.182 64.8557 168.442H116.258ZM11.23 157.901C11.6418 157.949 11.9252 158.01 12.2042 158.01C26.7509 158.015 41.302 158.028 55.8487 157.971C56.4288 157.971 57.1816 157.407 57.5536 156.896C58.5411 155.528 59.2629 153.972 60.2769 152.626C61.0076 151.656 60.9057 150.983 60.3124 150C51.4692 135.404 31.3828 132.651 18.8996 144.376C14.963 148.073 12.3503 152.521 11.2344 157.901H11.23ZM169.672 158.019C169.672 157.661 169.716 157.42 169.667 157.206C167.36 147.465 158.685 138.598 146.26 137.147C136.416 135.998 124.898 141.819 120.434 150.594C120.213 151.027 120.332 151.805 120.585 152.264C121.4 153.741 122.449 155.095 123.224 156.59C123.778 157.661 124.415 158.058 125.66 158.054C139.794 158.006 153.929 158.023 168.069 158.023H169.672V158.019ZM67.1894 25.4865C51.0131 28.7991 26.9059 52.7561 24.9929 67.2998C34.766 63.8824 44.2999 64.4811 53.2405 68.7332C54.7461 61.2909 55.9993 53.8398 57.8104 46.5199C59.6437 39.095 62.7789 32.1291 67.1938 25.4865H67.1894ZM156.458 67.444C148.505 46.887 134.52 33.025 114.106 25.4953C122.449 38.7848 125.837 53.5121 127.285 68.9735C136.743 64.468 146.282 63.8911 156.458 67.4484V67.444ZM37.4672 126.541C43.2283 126.545 48.0329 121.821 48.0683 116.118C48.1038 110.428 43.3478 105.661 37.5734 105.591C31.7592 105.525 26.8572 110.341 26.8837 116.101C26.9103 121.804 31.7061 126.532 37.4672 126.541ZM143.589 126.541C149.359 126.511 154.137 121.765 154.137 116.066C154.137 110.372 149.359 105.621 143.589 105.591C137.766 105.56 132.891 110.402 132.953 116.153C133.015 121.861 137.837 126.572 143.589 126.541ZM101.105 126.484C101.056 120.777 96.2429 116.062 90.4862 116.079C84.7207 116.097 79.9338 120.838 79.9205 126.537C79.9072 132.297 84.8181 137.108 90.6279 137.029C96.4068 136.951 101.154 132.17 101.105 126.484Z" fill="#ADC93F"/>
</svg>
